<?xml version="1.0" encoding="UTF-8"?>
<svg id="Layer_2" data-name="Layer 2" xmlns="http://www.w3.org/2000/svg" viewBox="0 0 429.24 429.24">
  <defs>
    <style>
      .cls-1 {
        fill: #befdd4;
      }

      .cls-2 {
        fill: #f7fcf9;
      }

      .cls-3 {
        fill: #1fd65f;
      }

      .cls-4 {
        fill: #20793e;
      }

      .cls-5 {
        fill: #69e493;
      }
    </style>
  </defs>
  <g id="Layer_11_Image" data-name="Layer 11 Image">
    <g>
      <circle class="cls-3" cx="214.62" cy="214.62" r="214.62"/>
      <path class="cls-2" d="M342.77,184.34c-77.85-36.92-168-42.23-250.74-21.66-13.07,3.25-24.57.18-29-13.25-3.55-10.77,1.97-24.42,16.22-27.85,93.98-22.63,196.48-17.2,283.38,24.88,10.6,5.13,17.06,10.42,19.22,19.46,2.48,10.39-3.32,19.09-10.76,23.45-11.01,6.45-16.92.39-28.33-5.02Z"/>
      <path class="cls-2" d="M148.5,192.15c-36.1,31.26-42.25,81.65-19.98,122.66-35.14-13.7-61.35-39.46-81.05-68.62,30.55-30.43,60.91-48.86,101.02-54.04Z"/>
      <path class="cls-2" d="M286.52,328.73c29.58-31.36,34.73-75.96,16.51-114.11,30.44,13.56,48.61,37.32,71.48,65.24-27.05,20.98-54.15,41.13-87.99,48.86Z"/>
      <path class="cls-1" d="M303.03,214.62c12.65,9.26,14.75,27.3,15.28,42.28.88,25.21-7.57,60.14-31.79,71.83-53.39,12.19-106.72,6.07-157.99-13.92-13.9-9.21-16.93-29.68-17.65-45.62-1.24-27.7,9.71-66.45,37.62-77.03,52.61-6.79,105.88.8,154.53,22.47Z"/>
      <circle class="cls-5" cx="214.62" cy="260.06" r="57.82"/>
      <circle class="cls-4" cx="213.41" cy="261.5" r="22.1"/>
    </g>
  </g>
</svg>