<?xml version="1.0" encoding="UTF-8"?>
<svg id="Layer_2" data-name="Layer 2" xmlns="http://www.w3.org/2000/svg" viewBox="0 0 1459.89 429.24">
  <defs>
    <style>
      .cls-1 {
        fill: #befdd4;
      }

      .cls-2 {
        fill: #f7fcf9;
      }

      .cls-3 {
        fill: #1fd65f;
      }

      .cls-4 {
        fill: #20793e;
      }

      .cls-5 {
        fill: #69e493;
      }
    </style>
  </defs>
  <g id="Layer_11_Image" data-name="Layer 11 Image">
    <g>
      <circle class="cls-3" cx="214.62" cy="214.62" r="214.62"/>
      <path class="cls-2" d="M342.77,184.34c-77.85-36.92-168-42.23-250.74-21.66-13.07,3.25-24.57.18-29-13.25-3.55-10.77,1.97-24.42,16.22-27.85,93.98-22.63,196.48-17.2,283.38,24.88,10.6,5.13,17.06,10.42,19.22,19.46,2.48,10.39-3.32,19.09-10.76,23.45-11.01,6.45-16.92.39-28.33-5.02Z"/>
      <path class="cls-2" d="M148.5,192.15c-36.1,31.26-42.25,81.65-19.98,122.66-35.14-13.7-61.35-39.46-81.05-68.62,30.55-30.43,60.91-48.86,101.02-54.04Z"/>
      <path class="cls-2" d="M286.52,328.73c29.58-31.36,34.73-75.96,16.51-114.11,30.44,13.56,48.61,37.32,71.48,65.24-27.05,20.98-54.15,41.13-87.99,48.86Z"/>
      <path class="cls-1" d="M303.03,214.62c12.65,9.26,14.75,27.3,15.28,42.28.88,25.21-7.57,60.14-31.79,71.83-53.39,12.19-106.72,6.07-157.99-13.92-13.9-9.21-16.93-29.68-17.65-45.62-1.24-27.7,9.71-66.45,37.62-77.03,52.61-6.79,105.88.8,154.53,22.47Z"/>
      <circle class="cls-5" cx="214.62" cy="260.06" r="57.82"/>
      <circle class="cls-4" cx="213.41" cy="261.5" r="22.1"/>
    </g>
    <g>
      <path class="cls-3" d="M631.58,184.71c-.57-5.71-3-10.14-7.29-13.31-4.29-3.16-10.12-4.74-17.48-4.74-5,0-9.22.7-12.67,2.09-3.44,1.39-6.08,3.32-7.89,5.77-1.82,2.45-2.72,5.24-2.72,8.35-.1,2.6.46,4.86,1.66,6.79,1.2,1.94,2.87,3.6,4.99,4.99,2.12,1.39,4.58,2.6,7.36,3.61,2.78,1.02,5.76,1.88,8.92,2.58l13.02,3.11c6.32,1.42,12.13,3.3,17.41,5.66,5.28,2.36,9.86,5.26,13.73,8.7,3.87,3.44,6.88,7.5,9.02,12.17,2.15,4.67,3.24,10.03,3.29,16.06-.05,8.87-2.3,16.55-6.76,23.04-4.46,6.49-10.88,11.51-19.25,15.07-8.38,3.56-18.46,5.34-30.26,5.34s-21.88-1.79-30.54-5.38c-8.66-3.58-15.41-8.91-20.24-15.96-4.84-7.05-7.37-15.79-7.61-26.22h29.65c.33,4.86,1.73,8.91,4.21,12.14,2.48,3.23,5.8,5.66,9.98,7.29s8.9,2.44,14.19,2.44,9.71-.75,13.55-2.27c3.84-1.51,6.83-3.61,8.95-6.3,2.12-2.69,3.18-5.78,3.18-9.27,0-3.26-.96-5.99-2.87-8.21-1.91-2.22-4.7-4.1-8.35-5.66-3.66-1.56-8.13-2.97-13.41-4.25l-15.78-3.96c-12.22-2.97-21.87-7.62-28.95-13.94-7.08-6.32-10.59-14.84-10.54-25.55-.05-8.78,2.3-16.44,7.04-23,4.74-6.56,11.26-11.68,19.57-15.36,8.3-3.68,17.74-5.52,28.31-5.52s20.16,1.84,28.2,5.52c8.04,3.68,14.31,8.8,18.79,15.36,4.48,6.56,6.79,14.15,6.94,22.79h-29.37Z"/>
      <path class="cls-3" d="M688.87,328.73v-149.47h29.72v18.26h1.34c1.32-2.92,3.24-5.91,5.77-8.95,2.52-3.04,5.83-5.59,9.91-7.64,4.08-2.05,9.16-3.08,15.25-3.08,7.93,0,15.24,2.06,21.94,6.19,6.7,4.13,12.05,10.33,16.07,18.61,4.01,8.28,6.02,18.65,6.02,31.1s-1.95,22.35-5.84,30.68c-3.89,8.33-9.18,14.63-15.85,18.9-6.68,4.27-14.14,6.4-22.4,6.4-5.85,0-10.82-.97-14.9-2.9-4.08-1.93-7.42-4.38-10.01-7.32-2.6-2.95-4.58-5.93-5.94-8.95h-.92v58.17h-30.15ZM718.38,233.61c0,6.46.9,12.1,2.69,16.91,1.79,4.81,4.39,8.55,7.78,11.22,3.4,2.67,7.52,4,12.38,4s9.06-1.36,12.46-4.07c3.4-2.71,5.98-6.49,7.75-11.32,1.77-4.84,2.65-10.41,2.65-16.74s-.87-11.8-2.62-16.56c-1.75-4.77-4.32-8.49-7.71-11.18-3.4-2.69-7.57-4.03-12.53-4.03s-9.05,1.3-12.42,3.89c-3.37,2.6-5.96,6.28-7.75,11.04-1.79,4.77-2.69,10.38-2.69,16.84Z"/>
      <path class="cls-3" d="M839.5,328.73c-3.82,0-7.4-.29-10.72-.88-3.33-.59-6.08-1.33-8.24-2.23l6.79-22.5c3.54,1.08,6.73,1.67,9.59,1.77,2.85.09,5.33-.57,7.43-1.98,2.1-1.42,3.81-3.82,5.13-7.22l1.77-4.6-39-111.82h31.71l22.51,79.83h1.13l22.72-79.83h31.92l-42.25,120.45c-2.03,5.85-4.78,10.96-8.24,15.32-3.47,4.36-7.84,7.74-13.13,10.12-5.29,2.38-11.65,3.57-19.11,3.57Z"/>
      <path class="cls-3" d="M1001.46,179.26v22.65h-65.46v-22.65h65.46ZM950.86,153.21h30.15v101.34c0,2.78.42,4.94,1.27,6.48.85,1.53,2.04,2.61,3.57,3.22,1.53.61,3.31.92,5.34.92,1.42,0,2.83-.13,4.25-.39,1.42-.26,2.5-.46,3.26-.6l4.74,22.43c-1.51.47-3.63,1.03-6.37,1.66-2.74.64-6.06,1.03-9.98,1.17-7.27.28-13.62-.68-19.07-2.9-5.45-2.22-9.68-5.66-12.7-10.33-3.02-4.67-4.51-10.57-4.46-17.69v-105.31Z"/>
      <path class="cls-3" d="M1042.19,165.25c-4.48,0-8.32-1.49-11.5-4.46-3.19-2.97-4.78-6.56-4.78-10.76s1.6-7.8,4.81-10.79c3.21-3,7.03-4.49,11.47-4.49s8.32,1.49,11.5,4.46c3.18,2.97,4.78,6.56,4.78,10.76s-1.59,7.8-4.78,10.79c-3.19,3-7.02,4.49-11.5,4.49ZM1027.04,287.96v-108.71h30.15v108.71h-30.15Z"/>
      <path class="cls-3" d="M1145.69,179.26v22.65h-67.09v-22.65h67.09ZM1093.95,287.96v-116.56c0-7.88,1.54-14.41,4.64-19.6,3.09-5.19,7.33-9.08,12.7-11.68,5.38-2.59,11.49-3.89,18.33-3.89,4.62,0,8.86.35,12.7,1.06,3.85.71,6.71,1.34,8.6,1.91l-5.38,22.65c-1.18-.38-2.63-.73-4.35-1.06-1.72-.33-3.48-.5-5.27-.5-4.44,0-7.53,1.03-9.27,3.08-1.75,2.05-2.62,4.92-2.62,8.6v115.99h-30.08Z"/>
      <path class="cls-3" d="M1188.68,328.73c-3.82,0-7.4-.29-10.72-.88-3.33-.59-6.08-1.33-8.24-2.23l6.79-22.5c3.54,1.08,6.73,1.67,9.59,1.77,2.85.09,5.33-.57,7.43-1.98,2.1-1.42,3.81-3.82,5.13-7.22l1.77-4.6-39-111.82h31.71l22.51,79.83h1.13l22.72-79.83h31.92l-42.25,120.45c-2.03,5.85-4.78,10.96-8.24,15.32-3.47,4.36-7.84,7.74-13.13,10.12-5.29,2.38-11.65,3.57-19.11,3.57Z"/>
      <path class="cls-3" d="M1314.46,248.29v-36.77h145.43v36.77h-145.43ZM1368.79,302.62v-145.43h36.77v145.43h-36.77Z"/>
    </g>
  </g>
</svg>